{"title":"Pocahontas-2(1998)720p BDRip[Hindi-Eng]-DGrea8","uid":8235988,"size":857790482,"categoryP":"video","categoryS":"hd___movies","magnet":"?xt=urn:btih:0f582c0355a941905be54622d8f0a91f8b4b8577&amp;dn=Pocahontas-2%281998%29720p+BDRip%5BHindi-Eng%5D-DGrea8&amp;tr=udp%3A%2F%2Ftracker.openbittorrent.com%3A80&amp;tr=udp%3A%2F%2Fopen.demonii.com%3A1337&amp;tr=udp%3A%2F%2Ftracker.coppersurfer.tk%3A6969&amp;tr=udp%3A%2F%2Fexodus.desync.com%3A6969","seeders":0,"leechers":2,"uploader":"DGrea8","files":-1,"time":1362842605,"description":"          Pocahontas-2(1998)720p BDRip In[Hindi-Eng]-DGrea8\n\n\nSummary:-\n\n\nPocahontas sets off on a journey to England with Meeko, Flit, and Percy.\nHearing rumors of John Smith's death, Pocahontas tries to prevent war and battle.\n\n\nCast:-\n\nIrene Bedard\t ...\tPocahontas (voice)\nJim Cummings\t ...\tKing James (voice)\nDonal Gibson\t ...\tJohn Smith (voice)\nFinola Hughes\t ...\tAdditional voices (voice)\nLinda Hunt\t ...\tGrandmother Willow (voice)\nRussell Means\t ...\towhatan (voice)\nDavid Ogden Stiers\t ...\tRatcliffe (voice)\nJean Stapleton\t ...\tMrs. Jenkins (voice)\nBilly Zane\t ...\tJohn Rolfe (voice)\nJeff Bennett\t ...\tAdditional voices (voice)\nBrad Garrett\t ...\tAdditional voices (voice)\nRob Paulsen\t ...\tAdditional voices (voice)\nGregg Rainwater\t ...\tAdditional voices (voice)\nWilliam Morgan Sheppard\t ...\tAdditional voices (voice) (as Morgan Sheppard)\nKath Soucie\t ...\tAdditional voices (voice)\n\n\nVideo &amp; Audio Info.:-\n\n\nDirectors: Tom Ellery, Bradley Raymond\nWriters: Allen Estrin (screenplay), Cindy Marcus (screenplay)\nStars: Irene Bedard, Donal Gibson, Jim Cummings\n\n\nVideo\nID : 1\nFormat : AVC\nDuration : 1h 10mn\nBit rate : 1 127 Kbps\nWidth : 1 280 pixels\nHeight : 720 pixels\nDisplay aspect ratio : 16:9\nFrame rate mode : Variable\nFrame rate : 25.000 fps\nColor space : YUV\nChroma subsampling : 4:2:0\nBit depth : 8 bits\nScan type : Progressive\n\n\nAudio #1\nID : 2\nFormat : AC-3\nCodec ID : A_AC3\nDuration : 1h 10mn\nBit rate mode : Constant\nBit rate : 224 Kbps\nChannel(s) : 6 channels\nChannel positions : Front: L C R, Side: L R, LFE\nSampling rate : 48.0 KHz\nBit depth : 16 bits\nCompression mode : Lossy\nStream size : 112 MiB (14%)\nLanguage : English\n\nAudio #2\nID : 3\nDuration : 1h 10mn\nBit rate mode : Constant\nBit rate : 224 Kbps\nChannel(s) : 2 channels\nSampling rate : 48.0 KHz\nCompression mode : Lossy\nStream size : 112 MiB (14%)\nTitle : Hindi\nLanguage : Hindi\n\n\nSubtitle Languages : Chinese,English\n\n\nScreen Shoots:-\n     &lt;a href=&quot;\nhttp://www.shotpix.com/images/03551125828649503575.jpg&quot; rel=&quot;nofollow&quot; target=&quot;_NEW&quot;&gt;\nhttp://www.shotpix.com/images/03551125828649503575.jpg&lt;/a&gt;\n &lt;a href=&quot;\nhttp://www.shotpix.com/images/26688316967294528806.jpg&quot; rel=&quot;nofollow&quot; target=&quot;_NEW&quot;&gt;\nhttp://www.shotpix.com/images/26688316967294528806.jpg&lt;/a&gt;\n &lt;a href=&quot;\nhttp://www.shotpix.com/images/57534379461849851967.jpg&quot; rel=&quot;nofollow&quot; target=&quot;_NEW&quot;&gt;\nhttp://www.shotpix.com/images/57534379461849851967.jpg&lt;/a&gt;\n &lt;a href=&quot;\nhttp://www.shotpix.com/images/65763802431617820137.jpg&quot; rel=&quot;nofollow&quot; target=&quot;_NEW&quot;&gt;\nhttp://www.shotpix.com/images/65763802431617820137.jpg&lt;/a&gt;\n &lt;a href=&quot;\nhttp://www.shotpix.com/images/73502022778402999362.jpg&quot; rel=&quot;nofollow&quot; target=&quot;_NEW&quot;&gt;\nhttp://www.shotpix.com/images/73502022778402999362.jpg&lt;/a&gt;\n\n\nNote:--\n\n Check The Sample Video In This Torrent\t","torrent":{"xt":"urn:btih:0f582c0355a941905be54622d8f0a91f8b4b8577","amp;dn":"Pocahontas-2%281998%29720p+BDRip%5BHindi-Eng%5D-DGrea8","amp;tr":["udp%3A%2F%2Ftracker.openbittorrent.com%3A80","udp%3A%2F%2Fopen.demonii.com%3A1337","udp%3A%2F%2Ftracker.coppersurfer.tk%3A6969","udp%3A%2F%2Fexodus.desync.com%3A6969"],"infoHash":"0f582c0355a941905be54622d8f0a91f8b4b8577","infoHashBuffer":{"type":"Buffer","data":[15,88,44,3,85,169,65,144,91,229,70,34,216,240,169,31,139,75,133,119]},"announce":[],"urlList":[]}}